<svg width="31" height="31" viewBox="0 0 31 31" fill="none" xmlns="http://www.w3.org/2000/svg">
<g clip-path="url(#clip0_70_1914)">
<path d="M12.0873 -0.5C5.49609 -0.5 0 4.03273 0 9.77419C0 12.7114 1.60761 15.2715 3.8909 17.1402C3.74347 18.1331 3.33978 19.0705 2.71964 19.8598C2.46656 20.1838 2.20209 20.4986 1.92671 20.8038C1.78417 20.9541 1.65739 21.1185 1.54838 21.2946C1.47948 21.407 1.37191 21.5327 1.32235 21.7865C1.27158 22.0392 1.34048 22.455 1.54838 22.768L1.69947 23.0327L2.00165 23.1838C3.05929 23.712 4.20154 23.619 5.25072 23.3349C6.29868 23.0497 7.30676 22.5613 8.27254 22.05C9.2371 21.54 10.1545 21.0057 10.8786 20.6153C10.9801 20.5609 11.0454 20.5476 11.1433 20.5017C13.0494 23.1222 16.5402 24.8833 20.4348 24.8833C20.4722 24.8881 20.5073 24.8833 20.5484 24.8833C22.1197 24.8833 27.1964 30.0736 30.2182 28.0187C30.3391 27.5365 27.5614 26.3265 27.4224 22.7306C29.7879 21.0589 31.3145 18.5725 31.3145 15.8178C31.3145 11.742 28.08 8.37448 23.76 7.16817C22.3929 2.72005 17.6402 -0.5 12.0873 -0.5ZM12.0873 1.91746C17.5834 1.91746 21.7571 5.60408 21.7571 9.77419C21.7571 13.9443 17.5834 17.6309 12.0873 17.6309C11.1058 17.6309 10.5425 18.0322 9.74477 18.4625C8.94701 18.8916 8.032 19.4247 7.13875 19.8973C6.36516 20.3058 5.62784 20.6201 4.94853 20.8413C5.60971 19.8864 6.29989 18.6305 6.42077 16.8755L6.45944 16.195L5.89255 15.7804C3.7386 14.2707 2.41746 12.0986 2.41746 9.77419C2.41746 5.60408 6.5912 1.91746 12.0873 1.91746Z" fill="black"/>
</g>
<defs>
<clipPath id="clip0_70_1914">
<rect width="31" height="31" fill="white"/>
</clipPath>
</defs>
</svg>
