<svg width="22" height="20" viewBox="0 0 22 20" fill="none" xmlns="http://www.w3.org/2000/svg">
<path d="M18 12L18 1.04907e-06L22 0L22 12L18 12ZM14 2.09815e-06C14.5304 1.95903e-06 15.0391 0.210716 15.4142 0.585789C15.7893 0.960861 16 1.46957 16 2L16 12C16 12.55 15.78 13.05 15.41 13.41L8.83 20L7.77 18.94C7.5 18.67 7.33 18.3 7.33 17.89L7.36 17.57L8.31 13L2 13C1.46957 13 0.960858 12.7893 0.585785 12.4142C0.210712 12.0391 -2.2213e-06 11.5304 -2.36042e-06 11L-2.88495e-06 9.00001C-2.95314e-06 8.74001 0.0499964 8.50001 0.139996 8.27001L3.15999 1.22C3.45999 0.500004 4.16999 4.67624e-06 4.99999 4.45856e-06L14 2.09815e-06ZM14 2L4.96999 2L2 9.00001L2 11L10.79 11L9.66 16.32L14 11.97L14 2Z" fill="#FF0000"/>
<path d="M15 12.5L9.5 17.5L8.5 17.5L9.5 12L1.5 12L0.999999 10L2 7L5.5 1L15 1L15 12.5Z" fill="#FF0000"/>
</svg>
