<svg width="22" height="20" viewBox="0 0 22 20" fill="none" xmlns="http://www.w3.org/2000/svg">
<path d="M4 8L4 20L3.49691e-06 20L1.39876e-06 8L4 8ZM8 20C7.46957 20 6.96086 19.7893 6.58579 19.4142C6.21072 19.0391 6 18.5304 6 18L6 8C6 7.45 6.22 6.95 6.59 6.59L13.17 -2.30272e-06L14.23 1.06C14.5 1.33 14.67 1.7 14.67 2.11L14.64 2.43L13.69 7L20 7C20.5304 7 21.0391 7.21071 21.4142 7.58578C21.7893 7.96086 22 8.46956 22 9L22 11C22 11.26 21.95 11.5 21.86 11.73L18.84 18.78C18.54 19.5 17.83 20 17 20L8 20ZM8 18L17.03 18L20 11L20 9L11.21 9L12.34 3.68L8 8.03L8 18Z" fill="#519C3C"/>
<path d="M7 7.5L12.5 2.5H13.5L12.5 8H20.5L21 10L20 13L16.5 19H7V7.5Z" fill="#519C3C"/>
</svg>
