<svg xmlns="http://www.w3.org/2000/svg" viewBox="0 0 125.23 88.27"><defs><style>.cls-1{fill:#fff;}</style></defs><g id="Layer_2" data-name="Layer 2"><g id="Layer_1-2" data-name="Layer 1"><path class="cls-1" d="M120.85,29.89h0a3.65,3.65,0,0,0-3.12-2.6,6.86,6.86,0,0,0-13.58-1.17A6.14,6.14,0,0,0,100.4,26c.32.95.6,1.91.85,2.88a3.43,3.43,0,0,1,.85-.13,3.33,3.33,0,0,1,2.5,1.13,1.51,1.51,0,0,0,2.57-1.41,3.79,3.79,0,0,1-.15-1,3.86,3.86,0,1,1,7.71,0,3.91,3.91,0,0,1-.25,1.38,1.47,1.47,0,0,0,.57,1.78,1.5,1.5,0,0,0,1.87-.17.62.62,0,0,1,.44-.18.64.64,0,0,1,.63.64.52.52,0,0,1-.08.28,1.51,1.51,0,0,0,.34,1.81,1.49,1.49,0,0,0,1.83.13,1.35,1.35,0,0,1,.77-.24,1.38,1.38,0,1,1,0,2.76H102.3c0,.83.09,1.67.09,2.52,0,.16,0,.32,0,.48h18.47a4.38,4.38,0,1,0,0-8.76Z"/><path class="cls-1" d="M102.3,35.65a38.34,38.34,0,0,0-1-6.74c-.25-1-.53-1.93-.85-2.88a38.16,38.16,0,0,0-73.67,5,10.82,10.82,0,0,1,2.78,1.45,35.23,35.23,0,1,1,6.35,26.48H32.21a38.11,38.11,0,0,0,57.43,7.68L112,87.85a1.48,1.48,0,0,0,1,.42,1.5,1.5,0,0,0,1-2.59L91.8,64.53a38,38,0,0,0,10.58-25.88c0-.16,0-.32,0-.48C102.39,37.32,102.35,36.48,102.3,35.65Z"/><path class="cls-1" d="M55.1,30.23a1.5,1.5,0,0,0,1.5-1.5,7.69,7.69,0,1,1,15.38,0A7.12,7.12,0,0,1,70,33.28c-.46.54-1,1-1.55,1.59s-.83.79-1.22,1.2c-.94,1-1.81,2-2.57,3a9.79,9.79,0,0,0-1.64,3.69,22.68,22.68,0,0,0-.54,5.51,1.5,1.5,0,0,0,3,0A20.09,20.09,0,0,1,66,43.47a6.87,6.87,0,0,1,1.1-2.57,36,36,0,0,1,2.38-2.77c.36-.37.73-.73,1.11-1.09a20.78,20.78,0,0,0,1.78-1.84A10.11,10.11,0,0,0,75,28.73a10.69,10.69,0,1,0-21.38,0A1.5,1.5,0,0,0,55.1,30.23Z"/><path class="cls-1" d="M64,53.31a1.54,1.54,0,1,0,1.54,1.53A1.53,1.53,0,0,0,64,53.31Z"/><path class="cls-1" d="M35.86,58.94h13a6.38,6.38,0,1,0,0-12.75,5.66,5.66,0,0,0-1.29.14,9.75,9.75,0,0,0-9.36-7.11,9.6,9.6,0,0,0-4.32,1,10.57,10.57,0,0,0-4.34-7.78A10.82,10.82,0,0,0,26.73,31a10.57,10.57,0,0,0-14,10c0,.25,0,.5,0,.75l-.43,0a5.13,5.13,0,0,0-5.08,4.5,7.89,7.89,0,0,0-.84-.05,6.38,6.38,0,1,0,0,12.75H35.86ZM3,52.57a3.38,3.38,0,0,1,5.26-2.81,1.52,1.52,0,0,0,1.84-.12,1.5,1.5,0,0,0,.33-1.81,2.19,2.19,0,0,1-.25-1,2.12,2.12,0,0,1,2.12-2.12,2.09,2.09,0,0,1,1.47.6,1.51,1.51,0,0,0,2.45-1.62A7.49,7.49,0,0,1,15.71,41a7.59,7.59,0,0,1,15.17,0,7.76,7.76,0,0,1-.29,2.06,1.5,1.5,0,0,0,2.56,1.4,6.73,6.73,0,0,1,11.73,4,1.53,1.53,0,0,0,.8,1.23,1.5,1.5,0,0,0,1.45,0,3.37,3.37,0,1,1,1.69,6.28H6.38A3.38,3.38,0,0,1,3,52.57Z"/></g></g></svg>