<svg width="48" height="55" viewBox="0 0 48 55" fill="none" xmlns="http://www.w3.org/2000/svg">
<path d="M42.0317 10.3121L35.7525 2.19961L44.7588 0.412109L46.5463 9.39544L42.0317 10.3121ZM35.2942 11.6184L29.015 3.52878L24.5004 4.42253L30.8025 12.5121L35.2942 11.6184ZM24.065 13.8642L17.7859 5.72878L13.2713 6.66836L19.5734 14.7579L24.065 13.8642ZM6.53378 8.02044L4.28795 8.45586C3.69761 8.57227 3.13605 8.80407 2.63548 9.13796C2.13492 9.47186 1.70518 9.90128 1.37092 10.4016C1.03666 10.9019 0.804454 11.4633 0.687611 12.0536C0.570769 12.6438 0.571591 13.2513 0.69003 13.8413L1.58378 18.3329L12.8129 16.11L6.53378 8.02044ZM47.4171 18.3329V41.2496C47.4171 43.7934 45.3775 45.8329 42.8338 45.8329H6.16711C4.95154 45.8329 3.78575 45.3501 2.92621 44.4905C2.06667 43.631 1.58378 42.4652 1.58378 41.2496V18.3329H47.4171ZM42.8338 22.9163H6.16711V41.2496H42.8338V22.9163ZM13.0421 54.9996H17.6254V50.4163H13.0421V54.9996ZM31.3754 54.9996H35.9588V50.4163H31.3754V54.9996ZM22.2088 54.9996H26.7921V50.4163H22.2088V54.9996Z" fill="white"/>
</svg>
