<svg width="47" height="37" viewBox="0 0 47 37" fill="none" xmlns="http://www.w3.org/2000/svg">
<path fill-rule="evenodd" clip-rule="evenodd" d="M0.583008 18.4993C0.583008 9.85747 0.583008 5.53539 3.26884 2.85185C5.95238 0.166015 10.2745 0.166016 18.9163 0.166016H28.083C36.7249 0.166016 41.047 0.166015 43.7305 2.85185C46.4163 5.53539 46.4163 9.85747 46.4163 18.4993C46.4163 27.1412 46.4163 31.4633 43.7305 34.1468C41.047 36.8327 36.7249 36.8327 28.083 36.8327H18.9163C10.2745 36.8327 5.95238 36.8327 3.26884 34.1468C0.583008 31.4633 0.583008 27.1412 0.583008 18.4993ZM9.74967 25.9473C9.29383 25.9473 8.85666 26.1283 8.53433 26.4507C8.21201 26.773 8.03092 27.2102 8.03092 27.666C8.03092 28.1219 8.21201 28.559 8.53433 28.8814C8.85666 29.2037 9.29383 29.3848 9.74967 29.3848H18.9163C19.3722 29.3848 19.8094 29.2037 20.1317 28.8814C20.454 28.559 20.6351 28.1219 20.6351 27.666C20.6351 27.2102 20.454 26.773 20.1317 26.4507C19.8094 26.1283 19.3722 25.9473 18.9163 25.9473H9.74967ZM13.7601 20.791C13.7601 20.3352 13.579 19.898 13.2567 19.5757C12.9344 19.2533 12.4972 19.0723 12.0413 19.0723H9.74967C9.29383 19.0723 8.85666 19.2533 8.53433 19.5757C8.21201 19.898 8.03092 20.3352 8.03092 20.791C8.03092 21.2469 8.21201 21.684 8.53433 22.0064C8.85666 22.3287 9.29383 22.5098 9.74967 22.5098H12.0413C12.4972 22.5098 12.9344 22.3287 13.2567 22.0064C13.579 21.684 13.7601 21.2469 13.7601 20.791ZM22.3538 19.0723C22.8097 19.0723 23.2469 19.2533 23.5692 19.5757C23.8915 19.898 24.0726 20.3352 24.0726 20.791C24.0726 21.2469 23.8915 21.684 23.5692 22.0064C23.2469 22.3287 22.8097 22.5098 22.3538 22.5098H17.7705C17.3147 22.5098 16.8775 22.3287 16.5552 22.0064C16.2328 21.684 16.0518 21.2469 16.0518 20.791C16.0518 20.3352 16.2328 19.898 16.5552 19.5757C16.8775 19.2533 17.3147 19.0723 17.7705 19.0723H22.3538ZM38.9684 20.791C38.9684 20.3352 38.7873 19.898 38.465 19.5757C38.1427 19.2533 37.7055 19.0723 37.2497 19.0723H28.083C27.6272 19.0723 27.19 19.2533 26.8677 19.5757C26.5453 19.898 26.3643 20.3352 26.3643 20.791C26.3643 21.2469 26.5453 21.684 26.8677 22.0064C27.19 22.3287 27.6272 22.5098 28.083 22.5098H37.2497C37.7055 22.5098 38.1427 22.3287 38.465 22.0064C38.7873 21.684 38.9684 21.2469 38.9684 20.791ZM24.6455 25.9473C24.1897 25.9473 23.7525 26.1283 23.4302 26.4507C23.1078 26.773 22.9268 27.2102 22.9268 27.666C22.9268 28.1219 23.1078 28.559 23.4302 28.8814C23.7525 29.2037 24.1897 29.3848 24.6455 29.3848H28.083C28.5388 29.3848 28.976 29.2037 29.2983 28.8814C29.6207 28.559 29.8018 28.1219 29.8018 27.666C29.8018 27.2102 29.6207 26.773 29.2983 26.4507C28.976 26.1283 28.5388 25.9473 28.083 25.9473H24.6455ZM32.0934 27.666C32.0934 27.2102 32.2745 26.773 32.5968 26.4507C32.9192 26.1283 33.3563 25.9473 33.8122 25.9473H37.2497C37.7055 25.9473 38.1427 26.1283 38.465 26.4507C38.7873 26.773 38.9684 27.2102 38.9684 27.666C38.9684 28.1219 38.7873 28.559 38.465 28.8814C38.1427 29.2037 37.7055 29.3848 37.2497 29.3848H33.8122C33.3563 29.3848 32.9192 29.2037 32.5968 28.8814C32.2745 28.559 32.0934 28.1219 32.0934 27.666Z" fill="white"/>
</svg>
