<svg width="29" height="25" viewBox="0 0 29 25" fill="none" xmlns="http://www.w3.org/2000/svg">
<path d="M15.1931 0C15.455 0.00157669 15.7133 0.0625867 15.9489 0.178568C16.2177 0.339455 16.4327 0.578731 16.5659 0.865322C16.6991 1.15191 16.7445 1.47258 16.696 1.78567L16.696 7.76765L26.214 0.37499C26.4667 0.171784 26.7708 0.0454782 27.0913 0.0107136C27.4117 -0.0240511 27.7353 0.0341497 28.0245 0.178568C28.3186 0.327074 28.566 0.556358 28.7384 0.840418C28.9108 1.12448 29.0014 1.45194 29 1.78567L29 23.2137C29.0014 23.5474 28.9108 23.8749 28.7384 24.1589C28.566 24.443 28.3186 24.6723 28.0245 24.8208C27.7355 24.9663 27.4117 25.025 27.0911 24.9903C26.7704 24.9555 26.4662 24.8285 26.214 24.6243L16.696 17.2406V23.2137C16.7426 23.5254 16.6964 23.8441 16.5632 24.1289C16.4301 24.4137 16.2162 24.6515 15.9489 24.8118C15.66 24.9573 15.3362 25.0161 15.0156 24.9813C14.6949 24.9465 14.3907 24.8196 14.1385 24.6154L0.67441 13.9014C0.464324 13.7344 0.29442 13.521 0.177572 13.2773C0.0607249 13.0337 0 12.7662 0 12.4952C0 12.2242 0.0607249 11.9567 0.177572 11.7131C0.29442 11.4694 0.464324 11.256 0.67441 11.089L14.1385 0.37499C14.4405 0.136787 14.8108 0.00513505 15.1931 0Z" fill="white"/>
</svg>
