<svg width="29" height="25" viewBox="0 0 29 25" fill="none" xmlns="http://www.w3.org/2000/svg">
<path d="M13.8069 25C13.545 24.9984 13.2867 24.9374 13.0511 24.8214C12.7823 24.6605 12.5673 24.4213 12.4341 24.1347C12.3009 23.8481 12.2555 23.5274 12.304 23.2143V17.2323L2.786 24.625C2.53334 24.8282 2.22917 24.9545 1.90874 24.9893C1.58831 25.0241 1.26475 24.9659 0.975549 24.8214C0.681362 24.6729 0.434027 24.4436 0.261599 24.1596C0.0891712 23.8755 -0.00144908 23.5481 1.75233e-05 23.2143V1.78633C-0.00144908 1.45261 0.0891712 1.12514 0.261599 0.841082C0.434027 0.557023 0.681362 0.327736 0.975549 0.17923C1.26449 0.0337477 1.58826 -0.0250448 1.90891 0.00974447C2.22957 0.0445338 2.53382 0.171463 2.786 0.375654L12.304 7.75939V1.78633C12.2574 1.47463 12.3036 1.15589 12.4368 0.871091C12.5699 0.586293 12.7838 0.348456 13.0511 0.188159C13.34 0.0426763 13.6638 -0.0161163 13.9844 0.018673C14.3051 0.0534623 14.6093 0.180392 14.8615 0.384582L28.3256 11.0986C28.5357 11.2656 28.7056 11.479 28.8224 11.7227C28.9393 11.9663 29 12.2338 29 12.5048C29 12.7758 28.9393 13.0433 28.8224 13.2869C28.7056 13.5306 28.5357 13.744 28.3256 13.911L14.8615 24.625C14.5595 24.8632 14.1892 24.9949 13.8069 25Z" fill="white"/>
</svg>
