<svg width="52" height="43" viewBox="0 0 52 43" fill="none" xmlns="http://www.w3.org/2000/svg">
<path d="M36.8521 12.6244C40.2173 17.1333 40.2173 25.8669 36.8521 30.3757M44.4258 3.74882C54.4939 13.4055 54.5545 29.6581 44.4258 39.2513M1.50781 29.0038V13.9938C1.50781 12.5382 2.63883 11.3565 4.0324 11.3565H13.0856C13.4197 11.3553 13.7501 11.2862 14.0568 11.1532C14.3636 11.0203 14.6404 10.8263 14.8705 10.5831L22.4442 1.99144C24.0347 0.327896 26.7537 1.50709 26.7537 3.85786V39.1423C26.7537 41.5108 24.0019 42.6799 22.4215 40.9834L14.873 32.4399C14.6422 32.1897 14.3626 31.9899 14.0517 31.8529C13.7407 31.7159 13.405 31.6447 13.0654 31.6437H4.0324C2.63883 31.6437 1.50781 30.4619 1.50781 29.0038Z" stroke="white" stroke-width="2" stroke-linecap="round" stroke-linejoin="round"/>
</svg>
